<?xml version="1.0" encoding="UTF-8" standalone="no"?>
<!DOCTYPE svg PUBLIC "-//W3C//DTD SVG 1.1//EN"
 "http://www.w3.org/Graphics/SVG/1.1/DTD/svg11.dtd">
<!-- Generated by graphviz version 3.0.0 (20220226.1711)
 -->
<!-- Pages: 1 -->
<svg width="250pt" height="114pt"
 viewBox="0.00 0.00 249.50 114.33" xmlns="http://www.w3.org/2000/svg" xmlns:xlink="http://www.w3.org/1999/xlink">
<g id="graph0" class="graph" transform="scale(1 1) rotate(0) translate(4 110.33)">
<polygon fill="white" stroke="transparent" points="-4,4 -4,-110.33 245.5,-110.33 245.5,4 -4,4"/>
<!-- Bird y -->
<g id="node1" class="node">
<title>Bird y</title>
<polygon fill="lightgray" stroke="black" points="40,-106.33 0,-106.33 0,-88.33 40,-88.33 40,-106.33"/>
<text text-anchor="middle" x="20" y="-95.13" font-family="Times New Roman,serif" font-size="9.00">Bird y</text>
</g>
<!-- Dist to pipe top -->
<g id="node2" class="node">
<title>Dist to pipe top</title>
<polygon fill="lightgray" stroke="black" points="134,-106.33 58,-106.33 58,-88.33 134,-88.33 134,-106.33"/>
<text text-anchor="middle" x="96" y="-95.13" font-family="Times New Roman,serif" font-size="9.00">Dist to pipe top</text>
</g>
<!-- Jump -->
<g id="node4" class="node">
<title>Jump</title>
<ellipse fill="lightblue" stroke="black" cx="146" cy="-26.16" rx="26.33" ry="26.33"/>
<text text-anchor="middle" x="146" y="-23.96" font-family="Times New Roman,serif" font-size="9.00">Jump</text>
</g>
<!-- Dist to pipe top&#45;&gt;Jump -->
<g id="edge1" class="edge">
<title>Dist to pipe top&#45;&gt;Jump</title>
<path fill="none" stroke="green" stroke-width="0.36" d="M101.93,-88.12C107.68,-80.17 116.73,-67.65 125.14,-56.02"/>
<polygon fill="green" stroke="green" stroke-width="0.36" points="128.07,-57.94 131.09,-47.78 122.4,-53.84 128.07,-57.94"/>
</g>
<!-- Dist to pipe bottom -->
<g id="node3" class="node">
<title>Dist to pipe bottom</title>
<polygon fill="lightgray" stroke="black" points="241.5,-106.33 152.5,-106.33 152.5,-88.33 241.5,-88.33 241.5,-106.33"/>
<text text-anchor="middle" x="197" y="-95.13" font-family="Times New Roman,serif" font-size="9.00">Dist to pipe bottom</text>
</g>
<!-- Dist to pipe bottom&#45;&gt;Jump -->
<g id="edge2" class="edge">
<title>Dist to pipe bottom&#45;&gt;Jump</title>
<path fill="none" stroke="red" stroke-width="0.35" d="M190.95,-88.12C185.09,-80.17 175.86,-67.65 167.28,-56.02"/>
<polygon fill="red" stroke="red" stroke-width="0.35" points="169.96,-53.75 161.2,-47.78 164.32,-57.91 169.96,-53.75"/>
</g>
</g>
</svg>
